<svg xmlns="http://www.w3.org/2000/svg" xmlns:xlink="http://www.w3.org/1999/xlink" width="500" height="500" viewBox="0 0 500 500">
  <defs>
    <clipPath id="clip-api-white">
      <rect width="500" height="500"/>
    </clipPath>
  </defs>
  <g id="api-white" clip-path="url(#clip-api-white)">
    <rect width="500" height="500" fill="rgba(0,0,0,0)"/>
    <g id="Group_1" data-name="Group 1" transform="translate(14 5)">
      <path id="Path_1" data-name="Path 1" d="M379.5,274.873c-6.711-96.191-62-236.843-159.31-236.843-80.532,0-140.932,55.925-180.079,166.657-3.356,10.067-14.541,15.659-24.607,11.185C5.438,212.516-.154,201.331,4.32,192.383,49.06,64.873,121.763,0,220.191,0,348.819,0,408.1,163.3,414.811,267.322,415.929,277.389,379.628,275,379.5,274.873Z" transform="translate(20.184 76)" fill="#fff"/>
      <text id="api" transform="translate(92 299)" fill="#fff" font-size="147" font-family="Poppins-Bold, Poppins" font-weight="700"><tspan x="0" y="0">api</tspan></text>
      <path id="Path_8" data-name="Path 8" d="M176.375,338.108c-61.053,0-124.212-27.369-165.265-73.685-1.17-1.545-19.341-22.471-7.487-27.985,17.5-7.154,41.182,13.351,41.171,13.248a179.524,179.524,0,0,0,130.528,52.632c42.106,0,116.843-7.368,147.37-52.632-8.421-90.527-58.235-214.069-147.709-214.069-9.474,0-6.176-6.966-6.176-16.439s-10.526-17.456,0-17.456C282.79,13.416,353.219,153.9,359.535,251.791a37.4,37.4,0,0,1-2.105,10.526c-28.421,48.421-92.633,75.79-181.054,75.79-.006-.023-.045-.059,0,0Z" transform="translate(89.347 75.535)" fill="#fff"/>
    </g>
  </g>
</svg>
